<svg width="25" height="18" viewBox="0 0 25 18" fill="none" xmlns="http://www.w3.org/2000/svg">
<path fill-rule="evenodd" clip-rule="evenodd" d="M21.3301 18H17.0478C15.3993 18 14.0514 16.6521 14.0514 15.0036C14.0514 8.83807 12.4765 2.06553 20.0326 0.1319C23.4558 -0.742791 24.3479 3.02749 20.7076 3.28738C18.4869 3.44641 18.0525 4.8816 17.9846 7.0499H21.4193C23.0679 7.0499 24.4158 8.39782 24.4158 10.0463V14.9124C24.4158 16.6114 23.0271 18 21.3301 18ZM7.99837 18H3.71607C2.06754 18 0.719623 16.6521 0.719623 15.0036C0.719623 8.83807 -0.855207 2.06553 6.70088 0.1319C10.1259 -0.74473 11.0181 3.02555 7.3758 3.28738C5.15514 3.44641 4.7207 4.8816 4.65282 7.0499H8.08952C9.73805 7.0499 11.086 8.39782 11.086 10.0463V14.9124C11.084 16.6114 9.69538 18 7.99837 18Z" fill="#E1B524"/>
</svg>
