<svg width="24" height="24" viewBox="0 0 24 24" fill="none" xmlns="http://www.w3.org/2000/svg">
<path d="M19 4H5C4.20435 4 3.44129 4.31607 2.87868 4.87868C2.31607 5.44129 2 6.20435 2 7V17C2 17.7956 2.31607 18.5587 2.87868 19.1213C3.44129 19.6839 4.20435 20 5 20H19C19.7956 20 20.5587 19.6839 21.1213 19.1213C21.6839 18.5587 22 17.7956 22 17V7C22 6.20435 21.6839 5.44129 21.1213 4.87868C20.5587 4.31607 19.7956 4 19 4ZM20 17C20 17.2652 19.8946 17.5196 19.7071 17.7071C19.5196 17.8946 19.2652 18 19 18H5C4.73478 18 4.48043 17.8946 4.29289 17.7071C4.10536 17.5196 4 17.2652 4 17V7C4 6.73478 4.10536 6.48043 4.29289 6.29289C4.48043 6.10536 4.73478 6 5 6H19C19.2652 6 19.5196 6.10536 19.7071 6.29289C19.8946 6.48043 20 6.73478 20 7V17ZM17.78 9.38C17.9435 9.58723 18.0184 9.85071 17.9885 10.113C17.9585 10.3752 17.826 10.615 17.62 10.78L13.87 13.78C13.3387 14.2035 12.6794 14.4341 12 14.4341C11.3206 14.4341 10.6613 14.2035 10.13 13.78L6.38 10.78C6.19782 10.608 6.08682 10.3739 6.06897 10.1241C6.05112 9.87416 6.12771 9.62667 6.2836 9.43056C6.43949 9.23444 6.66332 9.10397 6.91079 9.06498C7.15827 9.02599 7.41136 9.08131 7.62 9.22L11.38 12.22C11.5565 12.3595 11.775 12.4354 12 12.4354C12.225 12.4354 12.4435 12.3595 12.62 12.22L16.38 9.22C16.5872 9.05649 16.8507 8.98155 17.113 9.01153C17.3752 9.0415 17.615 9.17395 17.78 9.38Z" fill="black"/>
</svg>
