<svg width="24" height="24" viewBox="0 0 24 24" fill="none" xmlns="http://www.w3.org/2000/svg">
<path d="M12 4.8C11.0507 4.8 10.1226 5.08151 9.33327 5.60894C8.54391 6.13637 7.92868 6.88603 7.56538 7.76312C7.20208 8.6402 7.10703 9.60532 7.29223 10.5364C7.47744 11.4675 7.9346 12.3228 8.60589 12.9941C9.27718 13.6654 10.1325 14.1226 11.0636 14.3078C11.9947 14.493 12.9598 14.3979 13.8369 14.0346C14.714 13.6713 15.4636 13.0561 15.9911 12.2667C16.5185 11.4774 16.8 10.5493 16.8 9.6C16.8 8.32696 16.2943 7.10606 15.3941 6.20589C14.4939 5.30571 13.273 4.8 12 4.8ZM12 12C11.5253 12 11.0613 11.8592 10.6666 11.5955C10.272 11.3318 9.96434 10.957 9.78269 10.5184C9.60104 10.0799 9.55351 9.59733 9.64612 9.13178C9.73872 8.66623 9.9673 8.23859 10.3029 7.90294C10.6386 7.5673 11.0662 7.33872 11.5318 7.24611C11.9973 7.15351 12.4799 7.20104 12.9184 7.38269C13.357 7.56434 13.7318 7.87195 13.9955 8.26663C14.2592 8.66131 14.4 9.12532 14.4 9.6C14.4 10.2365 14.1471 10.847 13.6971 11.2971C13.247 11.7471 12.6365 12 12 12ZM12 0C9.62663 0 7.30655 0.703788 5.33316 2.02236C3.35977 3.34094 1.8217 5.21508 0.913451 7.4078C0.00519941 9.60051 -0.232441 12.0133 0.230582 14.3411C0.693605 16.6689 1.83649 18.807 3.51472 20.4853C5.19295 22.1635 7.33115 23.3064 9.65892 23.7694C11.9867 24.2324 14.3995 23.9948 16.5922 23.0865C18.7849 22.1783 20.6591 20.6402 21.9776 18.6668C23.2962 16.6934 24 14.3734 24 12C24 10.4241 23.6896 8.8637 23.0866 7.4078C22.4835 5.95189 21.5996 4.62902 20.4853 3.51472C19.371 2.40041 18.0481 1.5165 16.5922 0.913445C15.1363 0.310389 13.5759 0 12 0ZM7.2 20.304V19.2C7.2 18.8817 7.32643 18.5765 7.55148 18.3515C7.77652 18.1264 8.08174 18 8.4 18H15.6C15.9183 18 16.2235 18.1264 16.4485 18.3515C16.6736 18.5765 16.8 18.8817 16.8 19.2V20.304C15.3426 21.1525 13.6864 21.5995 12 21.5995C10.3136 21.5995 8.65738 21.1525 7.2 20.304ZM19.116 18.42C18.9384 17.6199 18.4932 16.9044 17.8539 16.3917C17.2146 15.8789 16.4195 15.5997 15.6 15.6H8.4C7.58049 15.5997 6.78538 15.8789 6.14608 16.3917C5.50678 16.9044 5.06157 17.6199 4.884 18.42C3.63671 17.0426 2.81598 15.3328 2.5214 13.4981C2.22682 11.6633 2.47105 9.78257 3.22446 8.08393C3.97786 6.38529 5.20806 4.94182 6.76578 3.92866C8.3235 2.9155 10.1418 2.3762 12 2.3762C13.8582 2.3762 15.6765 2.9155 17.2342 3.92866C18.7919 4.94182 20.0221 6.38529 20.7755 8.08393C21.529 9.78257 21.7732 11.6633 21.4786 13.4981C21.184 15.3328 20.3633 17.0426 19.116 18.42Z" fill="black"/>
</svg>
